<svg xmlns="http://www.w3.org/2000/svg" width="1200" height="1200" viewBox="0 0 1200 1200">
<style>
  text { font-family: -apple-system, BlinkMacSystemFont, "Segoe UI", sans-serif; fill: #222222; }
  .title { font-size: 23px; font-weight: 700; } .subtitle { font-size: 13px; fill: #5b5b5b; }
  .tick { font-size: 14px; fill: #555; } .grid { stroke: #dedbd5; stroke-width: 1; }
  .axis { stroke: #222222; stroke-width: 1.5; } .point { fill: #e53b2c; }
  .series { fill: none; stroke: #e53b2c; stroke-width: 1.4; stroke-opacity: 0.55; }
  .fit { fill: none; stroke: #e53b2c; stroke-width: 2.2; stroke-dasharray: 3 7; } .note { font-size: 11px; fill: #5b5b5b; }
</style>
<defs><clipPath id="plot-area"><rect x="140" y="115" width="995" height="885"/></clipPath></defs>
<rect width="100%" height="100%" fill="#fbfaf7"/>
<text x="140" y="45" class="title">Global world product, 10,000 BCE–2019</text>
<text x="140" y="73" class="subtitle">The same reconstructed series on ordinary linear axes: the familiar hockey stick.</text>
<line x1="178.3" y1="115" x2="178.3" y2="1000" class="grid"/><line x1="561.0" y1="115" x2="561.0" y2="1000" class="grid"/><line x1="943.7" y1="115" x2="943.7" y2="1000" class="grid"/><line x1="1020.2" y1="115" x2="1020.2" y2="1000" class="grid"/><line x1="1096.7" y1="115" x2="1096.7" y2="1000" class="grid"/><line x1="140" y1="1000.0" x2="1135" y2="1000.0" class="grid"/><line x1="140" y1="778.8" x2="1135" y2="778.8" class="grid"/><line x1="140" y1="557.5" x2="1135" y2="557.5" class="grid"/><line x1="140" y1="336.2" x2="1135" y2="336.2" class="grid"/><line x1="140" y1="115.0" x2="1135" y2="115.0" class="grid"/>
<line x1="140" y1="115" x2="140" y2="1000" class="axis"/>
<line x1="140" y1="1000" x2="1135" y2="1000" class="axis"/>
<g clip-path="url(#plot-area)"><path d="M 178.27 999.98 L 560.96 999.98 L 637.50 999.97 L 714.04 999.93 L 790.58 999.87 L 867.12 999.75 L 905.38 999.49 L 928.35 999.23 L 943.65 999.13 L 958.96 999.03 L 974.27 999.03 L 981.92 999.03 L 989.58 998.98 L 997.23 998.93 L 1004.88 998.88 L 1012.54 998.79 L 1020.19 998.67 L 1027.85 998.19 L 1035.50 997.80 L 1043.15 997.80 L 1050.81 997.90 L 1058.46 996.97 L 1066.12 996.13 L 1073.77 995.61 L 1082.95 991.80 L 1086.78 987.52 L 1090.07 969.39 L 1092.14 944.54 L 1092.90 941.17 L 1092.98 937.66 L 1093.06 934.83 L 1093.13 931.58 L 1093.21 929.28 L 1093.29 924.73 L 1093.36 921.18 L 1093.44 918.21 L 1093.52 915.58 L 1093.59 911.67 L 1093.67 907.00 L 1093.75 903.81 L 1093.82 899.32 L 1093.90 894.99 L 1093.98 887.34 L 1094.05 881.35 L 1094.13 874.83 L 1094.20 870.15 L 1094.28 863.06 L 1094.36 855.49 L 1094.43 847.88 L 1094.51 841.64 L 1094.59 834.02 L 1094.66 822.90 L 1094.74 818.82 L 1094.82 815.99 L 1094.89 806.98 L 1094.97 799.17 L 1095.05 790.33 L 1095.12 782.82 L 1095.20 778.46 L 1095.28 774.12 L 1095.35 771.63 L 1095.43 765.19 L 1095.51 754.40 L 1095.58 745.93 L 1095.66 736.94 L 1095.74 726.84 L 1095.81 715.10 L 1095.89 705.83 L 1095.97 699.85 L 1096.04 695.60 L 1096.12 689.53 L 1096.20 682.48 L 1096.27 671.39 L 1096.35 657.87 L 1096.42 646.42 L 1096.50 632.40 L 1096.58 625.47 L 1096.65 611.71 L 1096.73 592.83 L 1096.81 580.53 L 1096.88 565.45 L 1096.96 544.59 L 1097.04 521.79 L 1097.11 499.43 L 1097.19 473.32 L 1097.27 450.07 L 1097.34 434.17 L 1097.42 438.30 L 1097.50 405.90 L 1097.57 380.47 L 1097.65 358.72 L 1097.73 336.32 L 1097.80 312.49 L 1097.88 288.57 L 1097.96 264.14 L 1098.03 235.66 L 1098.11 208.30 L 1098.18 185.36" class="series"/><circle cx="178.3" cy="1000.0" r="3.0" class="point"/><circle cx="561.0" cy="1000.0" r="3.0" class="point"/><circle cx="637.5" cy="1000.0" r="3.0" class="point"/><circle cx="714.0" cy="999.9" r="3.0" class="point"/><circle cx="790.6" cy="999.9" r="3.0" class="point"/><circle cx="867.1" cy="999.8" r="3.0" class="point"/><circle cx="905.4" cy="999.5" r="3.0" class="point"/><circle cx="928.3" cy="999.2" r="3.0" class="point"/><circle cx="943.7" cy="999.1" r="3.0" class="point"/><circle cx="959.0" cy="999.0" r="3.0" class="point"/><circle cx="974.3" cy="999.0" r="3.0" class="point"/><circle cx="981.9" cy="999.0" r="3.0" class="point"/><circle cx="989.6" cy="999.0" r="3.0" class="point"/><circle cx="997.2" cy="998.9" r="3.0" class="point"/><circle cx="1004.9" cy="998.9" r="3.0" class="point"/><circle cx="1012.5" cy="998.8" r="3.0" class="point"/><circle cx="1020.2" cy="998.7" r="3.0" class="point"/><circle cx="1027.8" cy="998.2" r="3.0" class="point"/><circle cx="1035.5" cy="997.8" r="3.0" class="point"/><circle cx="1043.2" cy="997.8" r="3.0" class="point"/><circle cx="1050.8" cy="997.9" r="3.0" class="point"/><circle cx="1058.5" cy="997.0" r="3.0" class="point"/><circle cx="1066.1" cy="996.1" r="3.0" class="point"/><circle cx="1073.8" cy="995.6" r="3.0" class="point"/><circle cx="1083.0" cy="991.8" r="3.0" class="point"/><circle cx="1086.8" cy="987.5" r="3.0" class="point"/><circle cx="1090.1" cy="969.4" r="3.0" class="point"/><circle cx="1092.1" cy="944.5" r="3.0" class="point"/><circle cx="1092.9" cy="941.2" r="3.0" class="point"/><circle cx="1093.0" cy="937.7" r="3.0" class="point"/><circle cx="1093.1" cy="934.8" r="3.0" class="point"/><circle cx="1093.1" cy="931.6" r="3.0" class="point"/><circle cx="1093.2" cy="929.3" r="3.0" class="point"/><circle cx="1093.3" cy="924.7" r="3.0" class="point"/><circle cx="1093.4" cy="921.2" r="3.0" class="point"/><circle cx="1093.4" cy="918.2" r="3.0" class="point"/><circle cx="1093.5" cy="915.6" r="3.0" class="point"/><circle cx="1093.6" cy="911.7" r="3.0" class="point"/><circle cx="1093.7" cy="907.0" r="3.0" class="point"/><circle cx="1093.7" cy="903.8" r="3.0" class="point"/><circle cx="1093.8" cy="899.3" r="3.0" class="point"/><circle cx="1093.9" cy="895.0" r="3.0" class="point"/><circle cx="1094.0" cy="887.3" r="3.0" class="point"/><circle cx="1094.1" cy="881.4" r="3.0" class="point"/><circle cx="1094.1" cy="874.8" r="3.0" class="point"/><circle cx="1094.2" cy="870.2" r="3.0" class="point"/><circle cx="1094.3" cy="863.1" r="3.0" class="point"/><circle cx="1094.4" cy="855.5" r="3.0" class="point"/><circle cx="1094.4" cy="847.9" r="3.0" class="point"/><circle cx="1094.5" cy="841.6" r="3.0" class="point"/><circle cx="1094.6" cy="834.0" r="3.0" class="point"/><circle cx="1094.7" cy="822.9" r="3.0" class="point"/><circle cx="1094.7" cy="818.8" r="3.0" class="point"/><circle cx="1094.8" cy="816.0" r="3.0" class="point"/><circle cx="1094.9" cy="807.0" r="3.0" class="point"/><circle cx="1095.0" cy="799.2" r="3.0" class="point"/><circle cx="1095.0" cy="790.3" r="3.0" class="point"/><circle cx="1095.1" cy="782.8" r="3.0" class="point"/><circle cx="1095.2" cy="778.5" r="3.0" class="point"/><circle cx="1095.3" cy="774.1" r="3.0" class="point"/><circle cx="1095.4" cy="771.6" r="3.0" class="point"/><circle cx="1095.4" cy="765.2" r="3.0" class="point"/><circle cx="1095.5" cy="754.4" r="3.0" class="point"/><circle cx="1095.6" cy="745.9" r="3.0" class="point"/><circle cx="1095.7" cy="736.9" r="3.0" class="point"/><circle cx="1095.7" cy="726.8" r="3.0" class="point"/><circle cx="1095.8" cy="715.1" r="3.0" class="point"/><circle cx="1095.9" cy="705.8" r="3.0" class="point"/><circle cx="1096.0" cy="699.8" r="3.0" class="point"/><circle cx="1096.0" cy="695.6" r="3.0" class="point"/><circle cx="1096.1" cy="689.5" r="3.0" class="point"/><circle cx="1096.2" cy="682.5" r="3.0" class="point"/><circle cx="1096.3" cy="671.4" r="3.0" class="point"/><circle cx="1096.3" cy="657.9" r="3.0" class="point"/><circle cx="1096.4" cy="646.4" r="3.0" class="point"/><circle cx="1096.5" cy="632.4" r="3.0" class="point"/><circle cx="1096.6" cy="625.5" r="3.0" class="point"/><circle cx="1096.7" cy="611.7" r="3.0" class="point"/><circle cx="1096.7" cy="592.8" r="3.0" class="point"/><circle cx="1096.8" cy="580.5" r="3.0" class="point"/><circle cx="1096.9" cy="565.4" r="3.0" class="point"/><circle cx="1097.0" cy="544.6" r="3.0" class="point"/><circle cx="1097.0" cy="521.8" r="3.0" class="point"/><circle cx="1097.1" cy="499.4" r="3.0" class="point"/><circle cx="1097.2" cy="473.3" r="3.0" class="point"/><circle cx="1097.3" cy="450.1" r="3.0" class="point"/><circle cx="1097.3" cy="434.2" r="3.0" class="point"/><circle cx="1097.4" cy="438.3" r="3.0" class="point"/><circle cx="1097.5" cy="405.9" r="3.0" class="point"/><circle cx="1097.6" cy="380.5" r="3.0" class="point"/><circle cx="1097.6" cy="358.7" r="3.0" class="point"/><circle cx="1097.7" cy="336.3" r="3.0" class="point"/><circle cx="1097.8" cy="312.5" r="3.0" class="point"/><circle cx="1097.9" cy="288.6" r="3.0" class="point"/><circle cx="1098.0" cy="264.1" r="3.0" class="point"/><circle cx="1098.0" cy="235.7" r="3.0" class="point"/><circle cx="1098.1" cy="208.3" r="3.0" class="point"/><circle cx="1098.2" cy="185.4" r="3.0" class="point"/></g><text x="178.3" y="1031" text-anchor="middle" class="tick">10,000 BCE</text><text x="561.0" y="1031" text-anchor="middle" class="tick">5,000 BCE</text><text x="943.7" y="1031" text-anchor="middle" class="tick">1 CE</text><text x="1020.2" y="1031" text-anchor="middle" class="tick">1000</text><text x="1096.7" y="1031" text-anchor="middle" class="tick">2000</text><text x="125" y="1005.0" text-anchor="end" class="tick">0</text><text x="125" y="783.8" text-anchor="end" class="tick">20,000</text><text x="125" y="562.5" text-anchor="end" class="tick">40,000</text><text x="125" y="341.2" text-anchor="end" class="tick">60,000</text><text x="125" y="120.0" text-anchor="end" class="tick">80,000</text>
<text x="637.5" y="1077" text-anchor="middle" class="tick">Year</text>
<text x="33" y="557.5" transform="rotate(-90 33 557.5)" text-anchor="middle" class="tick">GWP (1990 international-$ billions)</text>
<text x="140" y="1152" class="note">Reconstructed from Roodman GWP.xlsx and the data-preparation logic in Model GWP.do.</text>
<text x="140" y="1173" class="note">The dotted reference line is a simple least-squares fit in the chart’s displayed coordinates.</text>
</svg>