<svg xmlns="http://www.w3.org/2000/svg" width="1200" height="1200" viewBox="0 0 1200 1200">
<style>
  text { font-family: -apple-system, BlinkMacSystemFont, "Segoe UI", sans-serif; fill: #222222; }
  .title { font-size: 23px; font-weight: 700; } .subtitle { font-size: 13px; fill: #5b5b5b; }
  .tick { font-size: 14px; fill: #555; } .grid { stroke: #dedbd5; stroke-width: 1; }
  .axis { stroke: #222222; stroke-width: 1.5; } .history-point { fill: #1f77b4; }
  .history-series { fill: none; stroke: #1f77b4; stroke-width: 1.4; stroke-opacity: 0.68; }
  .update-series { fill: none; stroke: #d63d31; stroke-width: 1.7; stroke-opacity: 0.78; }
  .update-point { fill: #d63d31; stroke: #fbfaf7; stroke-width: 1.4; }
  .fit { fill: none; stroke: #5b5b5b; stroke-width: 2.2; stroke-dasharray: 3 7; }
  .legend { font-size: 12px; } .note { font-size: 11px; fill: #5b5b5b; }
</style>
<defs><clipPath id="plot-area"><rect x="140" y="115" width="995" height="885"/></clipPath></defs>
<rect width="100%" height="100%" fill="#fbfaf7"/>
<text x="140" y="45" class="title">The same series on a logarithmic vertical axis</text>
<text x="140" y="73" class="subtitle">Equal vertical spacing means a tenfold increase; the dotted line is the best exponential fit.</text>
<line x1="178.3" y1="115" x2="178.3" y2="1000" class="grid"/><line x1="561.0" y1="115" x2="561.0" y2="1000" class="grid"/><line x1="943.7" y1="115" x2="943.7" y2="1000" class="grid"/><line x1="1020.2" y1="115" x2="1020.2" y2="1000" class="grid"/><line x1="1096.7" y1="115" x2="1096.7" y2="1000" class="grid"/><line x1="140" y1="1000.0" x2="1135" y2="1000.0" class="grid"/><line x1="140" y1="823.0" x2="1135" y2="823.0" class="grid"/><line x1="140" y1="646.0" x2="1135" y2="646.0" class="grid"/><line x1="140" y1="469.0" x2="1135" y2="469.0" class="grid"/><line x1="140" y1="292.0" x2="1135" y2="292.0" class="grid"/><line x1="140" y1="115.0" x2="1135" y2="115.0" class="grid"/>
<line x1="140" y1="115" x2="140" y2="1000" class="axis"/>
<line x1="140" y1="1000" x2="1135" y2="1000" class="axis"/>
<g clip-path="url(#plot-area)"><path d="M 178.27 963.87 L 560.96 946.01 L 637.50 919.08 L 714.04 863.59 L 790.58 811.02 L 867.12 761.70 L 905.38 706.22 L 928.35 673.76 L 943.65 664.69 L 958.96 655.84 L 974.27 655.84 L 981.92 655.84 L 989.58 652.15 L 997.23 648.64 L 1004.88 645.29 L 1012.54 639.03 L 1020.19 632.03 L 1027.85 608.11 L 1035.50 593.31 L 1043.15 593.31 L 1050.81 596.85 L 1058.46 568.56 L 1066.12 549.73 L 1073.77 540.02 L 1082.95 492.01 L 1086.78 459.74 L 1090.07 390.77 L 1092.14 345.08 L 1092.90 340.54 L 1092.98 336.09 L 1093.06 332.68 L 1093.13 328.93 L 1093.21 326.39 L 1093.29 321.60 L 1093.36 318.06 L 1093.44 315.21 L 1093.52 312.78 L 1093.59 309.30 L 1093.67 305.34 L 1093.75 302.75 L 1093.82 299.24 L 1093.90 296.01 L 1093.98 290.60 L 1094.05 286.62 L 1094.13 282.50 L 1094.20 279.68 L 1094.28 275.59 L 1094.36 271.46 L 1094.43 267.51 L 1094.51 264.42 L 1094.59 260.81 L 1094.66 255.83 L 1094.74 254.08 L 1094.82 252.88 L 1094.89 249.21 L 1094.97 246.16 L 1095.05 242.85 L 1095.12 240.14 L 1095.20 238.62 L 1095.28 237.13 L 1095.35 236.28 L 1095.43 234.14 L 1095.51 230.69 L 1095.58 228.08 L 1095.66 225.41 L 1095.74 222.52 L 1095.81 219.28 L 1095.89 216.82 L 1095.97 215.27 L 1096.04 214.19 L 1096.12 212.68 L 1096.20 210.95 L 1096.27 208.31 L 1096.35 205.21 L 1096.42 202.68 L 1096.50 199.69 L 1096.58 198.26 L 1096.65 195.48 L 1096.73 191.83 L 1096.81 189.54 L 1096.88 186.83 L 1096.96 183.23 L 1097.04 179.47 L 1097.11 175.96 L 1097.19 172.05 L 1097.27 168.73 L 1097.34 166.54 L 1097.42 167.10 L 1097.50 162.79 L 1097.57 159.57 L 1097.65 156.91 L 1097.73 154.28 L 1097.80 151.56 L 1097.88 148.93 L 1097.96 146.34 L 1098.03 143.42 L 1098.11 140.72 L 1098.18 138.52" class="history-series"/><path d="M 178.27 1466.90 L 179.80 1464.93 L 181.34 1462.97 L 182.88 1461.00 L 184.41 1459.04 L 185.95 1457.08 L 187.48 1455.11 L 189.02 1453.15 L 190.56 1451.18 L 192.09 1449.22 L 193.63 1447.25 L 195.16 1445.29 L 196.70 1443.32 L 198.23 1441.36 L 199.77 1439.40 L 201.31 1437.43 L 202.84 1435.47 L 204.38 1433.50 L 205.91 1431.54 L 207.45 1429.57 L 208.98 1427.61 L 210.52 1425.65 L 212.06 1423.68 L 213.59 1421.72 L 215.13 1419.75 L 216.66 1417.79 L 218.20 1415.82 L 219.73 1413.86 L 221.27 1411.89 L 222.81 1409.93 L 224.34 1407.97 L 225.88 1406.00 L 227.41 1404.04 L 228.95 1402.07 L 230.48 1400.11 L 232.02 1398.14 L 233.56 1396.18 L 235.09 1394.22 L 236.63 1392.25 L 238.16 1390.29 L 239.70 1388.32 L 241.24 1386.36 L 242.77 1384.39 L 244.31 1382.43 L 245.84 1380.46 L 247.38 1378.50 L 248.91 1376.54 L 250.45 1374.57 L 251.99 1372.61 L 253.52 1370.64 L 255.06 1368.68 L 256.59 1366.71 L 258.13 1364.75 L 259.66 1362.79 L 261.20 1360.82 L 262.74 1358.86 L 264.27 1356.89 L 265.81 1354.93 L 267.34 1352.96 L 268.88 1351.00 L 270.41 1349.04 L 271.95 1347.07 L 273.49 1345.11 L 275.02 1343.14 L 276.56 1341.18 L 278.09 1339.21 L 279.63 1337.25 L 281.16 1335.28 L 282.70 1333.32 L 284.24 1331.36 L 285.77 1329.39 L 287.31 1327.43 L 288.84 1325.46 L 290.38 1323.50 L 291.91 1321.53 L 293.45 1319.57 L 294.99 1317.61 L 296.52 1315.64 L 298.06 1313.68 L 299.59 1311.71 L 301.13 1309.75 L 302.67 1307.78 L 304.20 1305.82 L 305.74 1303.85 L 307.27 1301.89 L 308.81 1299.93 L 310.34 1297.96 L 311.88 1296.00 L 313.42 1294.03 L 314.95 1292.07 L 316.49 1290.10 L 318.02 1288.14 L 319.56 1286.18 L 321.09 1284.21 L 322.63 1282.25 L 324.17 1280.28 L 325.70 1278.32 L 327.24 1276.35 L 328.77 1274.39 L 330.31 1272.42 L 331.84 1270.46 L 333.38 1268.50 L 334.92 1266.53 L 336.45 1264.57 L 337.99 1262.60 L 339.52 1260.64 L 341.06 1258.67 L 342.59 1256.71 L 344.13 1254.75 L 345.67 1252.78 L 347.20 1250.82 L 348.74 1248.85 L 350.27 1246.89 L 351.81 1244.92 L 353.35 1242.96 L 354.88 1240.99 L 356.42 1239.03 L 357.95 1237.07 L 359.49 1235.10 L 361.02 1233.14 L 362.56 1231.17 L 364.10 1229.21 L 365.63 1227.24 L 367.17 1225.28 L 368.70 1223.32 L 370.24 1221.35 L 371.77 1219.39 L 373.31 1217.42 L 374.85 1215.46 L 376.38 1213.49 L 377.92 1211.53 L 379.45 1209.56 L 380.99 1207.60 L 382.52 1205.64 L 384.06 1203.67 L 385.60 1201.71 L 387.13 1199.74 L 388.67 1197.78 L 390.20 1195.81 L 391.74 1193.85 L 393.27 1191.89 L 394.81 1189.92 L 396.35 1187.96 L 397.88 1185.99 L 399.42 1184.03 L 400.95 1182.06 L 402.49 1180.10 L 404.02 1178.14 L 405.56 1176.17 L 407.10 1174.21 L 408.63 1172.24 L 410.17 1170.28 L 411.70 1168.31 L 413.24 1166.35 L 414.78 1164.38 L 416.31 1162.42 L 417.85 1160.46 L 419.38 1158.49 L 420.92 1156.53 L 422.45 1154.56 L 423.99 1152.60 L 425.53 1150.63 L 427.06 1148.67 L 428.60 1146.71 L 430.13 1144.74 L 431.67 1142.78 L 433.20 1140.81 L 434.74 1138.85 L 436.28 1136.88 L 437.81 1134.92 L 439.35 1132.95 L 440.88 1130.99 L 442.42 1129.03 L 443.95 1127.06 L 445.49 1125.10 L 447.03 1123.13 L 448.56 1121.17 L 450.10 1119.20 L 451.63 1117.24 L 453.17 1115.28 L 454.70 1113.31 L 456.24 1111.35 L 457.78 1109.38 L 459.31 1107.42 L 460.85 1105.45 L 462.38 1103.49 L 463.92 1101.52 L 465.45 1099.56 L 466.99 1097.60 L 468.53 1095.63 L 470.06 1093.67 L 471.60 1091.70 L 473.13 1089.74 L 474.67 1087.77 L 476.21 1085.81 L 477.74 1083.85 L 479.28 1081.88 L 480.81 1079.92 L 482.35 1077.95 L 483.88 1075.99 L 485.42 1074.02 L 486.96 1072.06 L 488.49 1070.09 L 490.03 1068.13 L 491.56 1066.17 L 493.10 1064.20 L 494.63 1062.24 L 496.17 1060.27 L 497.71 1058.31 L 499.24 1056.34 L 500.78 1054.38 L 502.31 1052.42 L 503.85 1050.45 L 505.38 1048.49 L 506.92 1046.52 L 508.46 1044.56 L 509.99 1042.59 L 511.53 1040.63 L 513.06 1038.66 L 514.60 1036.70 L 516.13 1034.74 L 517.67 1032.77 L 519.21 1030.81 L 520.74 1028.84 L 522.28 1026.88 L 523.81 1024.91 L 525.35 1022.95 L 526.89 1020.99 L 528.42 1019.02 L 529.96 1017.06 L 531.49 1015.09 L 533.03 1013.13 L 534.56 1011.16 L 536.10 1009.20 L 537.64 1007.24 L 539.17 1005.27 L 540.71 1003.31 L 542.24 1001.34 L 543.78 999.38 L 545.31 997.41 L 546.85 995.45 L 548.39 993.48 L 549.92 991.52 L 551.46 989.56 L 552.99 987.59 L 554.53 985.63 L 556.06 983.66 L 557.60 981.70 L 559.14 979.73 L 560.67 977.77 L 562.21 975.81 L 563.74 973.84 L 565.28 971.88 L 566.81 969.91 L 568.35 967.95 L 569.89 965.98 L 571.42 964.02 L 572.96 962.05 L 574.49 960.09 L 576.03 958.13 L 577.56 956.16 L 579.10 954.20 L 580.64 952.23 L 582.17 950.27 L 583.71 948.30 L 585.24 946.34 L 586.78 944.38 L 588.32 942.41 L 589.85 940.45 L 591.39 938.48 L 592.92 936.52 L 594.46 934.55 L 595.99 932.59 L 597.53 930.62 L 599.07 928.66 L 600.60 926.70 L 602.14 924.73 L 603.67 922.77 L 605.21 920.80 L 606.74 918.84 L 608.28 916.87 L 609.82 914.91 L 611.35 912.95 L 612.89 910.98 L 614.42 909.02 L 615.96 907.05 L 617.49 905.09 L 619.03 903.12 L 620.57 901.16 L 622.10 899.19 L 623.64 897.23 L 625.17 895.27 L 626.71 893.30 L 628.24 891.34 L 629.78 889.37 L 631.32 887.41 L 632.85 885.44 L 634.39 883.48 L 635.92 881.52 L 637.46 879.55 L 638.99 877.59 L 640.53 875.62 L 642.07 873.66 L 643.60 871.69 L 645.14 869.73 L 646.67 867.76 L 648.21 865.80 L 649.75 863.84 L 651.28 861.87 L 652.82 859.91 L 654.35 857.94 L 655.89 855.98 L 657.42 854.01 L 658.96 852.05 L 660.50 850.09 L 662.03 848.12 L 663.57 846.16 L 665.10 844.19 L 666.64 842.23 L 668.17 840.26 L 669.71 838.30 L 671.25 836.34 L 672.78 834.37 L 674.32 832.41 L 675.85 830.44 L 677.39 828.48 L 678.92 826.51 L 680.46 824.55 L 682.00 822.58 L 683.53 820.62 L 685.07 818.66 L 686.60 816.69 L 688.14 814.73 L 689.67 812.76 L 691.21 810.80 L 692.75 808.83 L 694.28 806.87 L 695.82 804.91 L 697.35 802.94 L 698.89 800.98 L 700.43 799.01 L 701.96 797.05 L 703.50 795.08 L 705.03 793.12 L 706.57 791.15 L 708.10 789.19 L 709.64 787.23 L 711.18 785.26 L 712.71 783.30 L 714.25 781.33 L 715.78 779.37 L 717.32 777.40 L 718.85 775.44 L 720.39 773.48 L 721.93 771.51 L 723.46 769.55 L 725.00 767.58 L 726.53 765.62 L 728.07 763.65 L 729.60 761.69 L 731.14 759.72 L 732.68 757.76 L 734.21 755.80 L 735.75 753.83 L 737.28 751.87 L 738.82 749.90 L 740.35 747.94 L 741.89 745.97 L 743.43 744.01 L 744.96 742.05 L 746.50 740.08 L 748.03 738.12 L 749.57 736.15 L 751.10 734.19 L 752.64 732.22 L 754.18 730.26 L 755.71 728.29 L 757.25 726.33 L 758.78 724.37 L 760.32 722.40 L 761.86 720.44 L 763.39 718.47 L 764.93 716.51 L 766.46 714.54 L 768.00 712.58 L 769.53 710.62 L 771.07 708.65 L 772.61 706.69 L 774.14 704.72 L 775.68 702.76 L 777.21 700.79 L 778.75 698.83 L 780.28 696.86 L 781.82 694.90 L 783.36 692.94 L 784.89 690.97 L 786.43 689.01 L 787.96 687.04 L 789.50 685.08 L 791.03 683.11 L 792.57 681.15 L 794.11 679.19 L 795.64 677.22 L 797.18 675.26 L 798.71 673.29 L 800.25 671.33 L 801.78 669.36 L 803.32 667.40 L 804.86 665.44 L 806.39 663.47 L 807.93 661.51 L 809.46 659.54 L 811.00 657.58 L 812.54 655.61 L 814.07 653.65 L 815.61 651.68 L 817.14 649.72 L 818.68 647.76 L 820.21 645.79 L 821.75 643.83 L 823.29 641.86 L 824.82 639.90 L 826.36 637.93 L 827.89 635.97 L 829.43 634.01 L 830.96 632.04 L 832.50 630.08 L 834.04 628.11 L 835.57 626.15 L 837.11 624.18 L 838.64 622.22 L 840.18 620.25 L 841.71 618.29 L 843.25 616.33 L 844.79 614.36 L 846.32 612.40 L 847.86 610.43 L 849.39 608.47 L 850.93 606.50 L 852.46 604.54 L 854.00 602.58 L 855.54 600.61 L 857.07 598.65 L 858.61 596.68 L 860.14 594.72 L 861.68 592.75 L 863.21 590.79 L 864.75 588.82 L 866.29 586.86 L 867.82 584.90 L 869.36 582.93 L 870.89 580.97 L 872.43 579.00 L 873.97 577.04 L 875.50 575.07 L 877.04 573.11 L 878.57 571.15 L 880.11 569.18 L 881.64 567.22 L 883.18 565.25 L 884.72 563.29 L 886.25 561.32 L 887.79 559.36 L 889.32 557.39 L 890.86 555.43 L 892.39 553.47 L 893.93 551.50 L 895.47 549.54 L 897.00 547.57 L 898.54 545.61 L 900.07 543.64 L 901.61 541.68 L 903.14 539.72 L 904.68 537.75 L 906.22 535.79 L 907.75 533.82 L 909.29 531.86 L 910.82 529.89 L 912.36 527.93 L 913.89 525.97 L 915.43 524.00 L 916.97 522.04 L 918.50 520.07 L 920.04 518.11 L 921.57 516.14 L 923.11 514.18 L 924.64 512.21 L 926.18 510.25 L 927.72 508.29 L 929.25 506.32 L 930.79 504.36 L 932.32 502.39 L 933.86 500.43 L 935.40 498.46 L 936.93 496.50 L 938.47 494.54 L 940.00 492.57 L 941.54 490.61 L 943.07 488.64 L 944.61 486.68 L 946.15 484.71 L 947.68 482.75 L 949.22 480.78 L 950.75 478.82 L 952.29 476.86 L 953.82 474.89 L 955.36 472.93 L 956.90 470.96 L 958.43 469.00 L 959.97 467.03 L 961.50 465.07 L 963.04 463.11 L 964.57 461.14 L 966.11 459.18 L 967.65 457.21 L 969.18 455.25 L 970.72 453.28 L 972.25 451.32 L 973.79 449.35 L 975.32 447.39 L 976.86 445.43 L 978.40 443.46 L 979.93 441.50 L 981.47 439.53 L 983.00 437.57 L 984.54 435.60 L 986.08 433.64 L 987.61 431.68 L 989.15 429.71 L 990.68 427.75 L 992.22 425.78 L 993.75 423.82 L 995.29 421.85 L 996.83 419.89 L 998.36 417.92 L 999.90 415.96 L 1001.43 414.00 L 1002.97 412.03 L 1004.50 410.07 L 1006.04 408.10 L 1007.58 406.14 L 1009.11 404.17 L 1010.65 402.21 L 1012.18 400.25 L 1013.72 398.28 L 1015.25 396.32 L 1016.79 394.35 L 1018.33 392.39 L 1019.86 390.42 L 1021.40 388.46 L 1022.93 386.49 L 1024.47 384.53 L 1026.00 382.57 L 1027.54 380.60 L 1029.08 378.64 L 1030.61 376.67 L 1032.15 374.71 L 1033.68 372.74 L 1035.22 370.78 L 1036.75 368.82 L 1038.29 366.85 L 1039.83 364.89 L 1041.36 362.92 L 1042.90 360.96 L 1044.43 358.99 L 1045.97 357.03 L 1047.51 355.07 L 1049.04 353.10 L 1050.58 351.14 L 1052.11 349.17 L 1053.65 347.21 L 1055.18 345.24 L 1056.72 343.28 L 1058.26 341.31 L 1059.79 339.35 L 1061.33 337.39 L 1062.86 335.42 L 1064.40 333.46 L 1065.93 331.49 L 1067.47 329.53 L 1069.01 327.56 L 1070.54 325.60 L 1072.08 323.64 L 1073.61 321.67 L 1075.15 319.71 L 1076.68 317.74 L 1078.22 315.78 L 1079.76 313.81 L 1081.29 311.85 L 1082.83 309.88 L 1084.36 307.92 L 1085.90 305.96 L 1087.43 303.99 L 1088.97 302.03 L 1090.51 300.06 L 1092.04 298.10 L 1093.58 296.13 L 1095.11 294.17 L 1096.65 292.21 L 1098.18 290.24" class="fit"/><circle cx="178.3" cy="963.9" r="3.0" class="history-point"/><circle cx="561.0" cy="946.0" r="3.0" class="history-point"/><circle cx="637.5" cy="919.1" r="3.0" class="history-point"/><circle cx="714.0" cy="863.6" r="3.0" class="history-point"/><circle cx="790.6" cy="811.0" r="3.0" class="history-point"/><circle cx="867.1" cy="761.7" r="3.0" class="history-point"/><circle cx="905.4" cy="706.2" r="3.0" class="history-point"/><circle cx="928.3" cy="673.8" r="3.0" class="history-point"/><circle cx="943.7" cy="664.7" r="3.0" class="history-point"/><circle cx="959.0" cy="655.8" r="3.0" class="history-point"/><circle cx="974.3" cy="655.8" r="3.0" class="history-point"/><circle cx="981.9" cy="655.8" r="3.0" class="history-point"/><circle cx="989.6" cy="652.1" r="3.0" class="history-point"/><circle cx="997.2" cy="648.6" r="3.0" class="history-point"/><circle cx="1004.9" cy="645.3" r="3.0" class="history-point"/><circle cx="1012.5" cy="639.0" r="3.0" class="history-point"/><circle cx="1020.2" cy="632.0" r="3.0" class="history-point"/><circle cx="1027.8" cy="608.1" r="3.0" class="history-point"/><circle cx="1035.5" cy="593.3" r="3.0" class="history-point"/><circle cx="1043.2" cy="593.3" r="3.0" class="history-point"/><circle cx="1050.8" cy="596.9" r="3.0" class="history-point"/><circle cx="1058.5" cy="568.6" r="3.0" class="history-point"/><circle cx="1066.1" cy="549.7" r="3.0" class="history-point"/><circle cx="1073.8" cy="540.0" r="3.0" class="history-point"/><circle cx="1083.0" cy="492.0" r="3.0" class="history-point"/><circle cx="1086.8" cy="459.7" r="3.0" class="history-point"/><circle cx="1090.1" cy="390.8" r="3.0" class="history-point"/><circle cx="1092.1" cy="345.1" r="3.0" class="history-point"/><circle cx="1092.9" cy="340.5" r="3.0" class="history-point"/><circle cx="1093.0" cy="336.1" r="3.0" class="history-point"/><circle cx="1093.1" cy="332.7" r="3.0" class="history-point"/><circle cx="1093.1" cy="328.9" r="3.0" class="history-point"/><circle cx="1093.2" cy="326.4" r="3.0" class="history-point"/><circle cx="1093.3" cy="321.6" r="3.0" class="history-point"/><circle cx="1093.4" cy="318.1" r="3.0" class="history-point"/><circle cx="1093.4" cy="315.2" r="3.0" class="history-point"/><circle cx="1093.5" cy="312.8" r="3.0" class="history-point"/><circle cx="1093.6" cy="309.3" r="3.0" class="history-point"/><circle cx="1093.7" cy="305.3" r="3.0" class="history-point"/><circle cx="1093.7" cy="302.7" r="3.0" class="history-point"/><circle cx="1093.8" cy="299.2" r="3.0" class="history-point"/><circle cx="1093.9" cy="296.0" r="3.0" class="history-point"/><circle cx="1094.0" cy="290.6" r="3.0" class="history-point"/><circle cx="1094.1" cy="286.6" r="3.0" class="history-point"/><circle cx="1094.1" cy="282.5" r="3.0" class="history-point"/><circle cx="1094.2" cy="279.7" r="3.0" class="history-point"/><circle cx="1094.3" cy="275.6" r="3.0" class="history-point"/><circle cx="1094.4" cy="271.5" r="3.0" class="history-point"/><circle cx="1094.4" cy="267.5" r="3.0" class="history-point"/><circle cx="1094.5" cy="264.4" r="3.0" class="history-point"/><circle cx="1094.6" cy="260.8" r="3.0" class="history-point"/><circle cx="1094.7" cy="255.8" r="3.0" class="history-point"/><circle cx="1094.7" cy="254.1" r="3.0" class="history-point"/><circle cx="1094.8" cy="252.9" r="3.0" class="history-point"/><circle cx="1094.9" cy="249.2" r="3.0" class="history-point"/><circle cx="1095.0" cy="246.2" r="3.0" class="history-point"/><circle cx="1095.0" cy="242.9" r="3.0" class="history-point"/><circle cx="1095.1" cy="240.1" r="3.0" class="history-point"/><circle cx="1095.2" cy="238.6" r="3.0" class="history-point"/><circle cx="1095.3" cy="237.1" r="3.0" class="history-point"/><circle cx="1095.4" cy="236.3" r="3.0" class="history-point"/><circle cx="1095.4" cy="234.1" r="3.0" class="history-point"/><circle cx="1095.5" cy="230.7" r="3.0" class="history-point"/><circle cx="1095.6" cy="228.1" r="3.0" class="history-point"/><circle cx="1095.7" cy="225.4" r="3.0" class="history-point"/><circle cx="1095.7" cy="222.5" r="3.0" class="history-point"/><circle cx="1095.8" cy="219.3" r="3.0" class="history-point"/><circle cx="1095.9" cy="216.8" r="3.0" class="history-point"/><circle cx="1096.0" cy="215.3" r="3.0" class="history-point"/><circle cx="1096.0" cy="214.2" r="3.0" class="history-point"/><circle cx="1096.1" cy="212.7" r="3.0" class="history-point"/><circle cx="1096.2" cy="210.9" r="3.0" class="history-point"/><circle cx="1096.3" cy="208.3" r="3.0" class="history-point"/><circle cx="1096.3" cy="205.2" r="3.0" class="history-point"/><circle cx="1096.4" cy="202.7" r="3.0" class="history-point"/><circle cx="1096.5" cy="199.7" r="3.0" class="history-point"/><circle cx="1096.6" cy="198.3" r="3.0" class="history-point"/><circle cx="1096.7" cy="195.5" r="3.0" class="history-point"/><circle cx="1096.7" cy="191.8" r="3.0" class="history-point"/><circle cx="1096.8" cy="189.5" r="3.0" class="history-point"/><circle cx="1096.9" cy="186.8" r="3.0" class="history-point"/><circle cx="1097.0" cy="183.2" r="3.0" class="history-point"/><circle cx="1097.0" cy="179.5" r="3.0" class="history-point"/><circle cx="1097.1" cy="176.0" r="3.0" class="history-point"/><circle cx="1097.2" cy="172.0" r="3.0" class="history-point"/><circle cx="1097.3" cy="168.7" r="3.0" class="history-point"/><circle cx="1097.3" cy="166.5" r="3.0" class="history-point"/><circle cx="1097.4" cy="167.1" r="3.0" class="history-point"/><circle cx="1097.5" cy="162.8" r="3.0" class="history-point"/><circle cx="1097.6" cy="159.6" r="3.0" class="history-point"/><circle cx="1097.6" cy="156.9" r="3.0" class="history-point"/><circle cx="1097.7" cy="154.3" r="3.0" class="history-point"/><circle cx="1097.8" cy="151.6" r="3.0" class="history-point"/><circle cx="1097.9" cy="148.9" r="3.0" class="history-point"/><circle cx="1098.0" cy="146.3" r="3.0" class="history-point"/><circle cx="1098.0" cy="143.4" r="3.0" class="history-point"/><circle cx="1098.1" cy="140.7" r="3.0" class="history-point"/><circle cx="1098.2" cy="138.5" r="3.0" class="history-point"/></g><text x="178.3" y="1031" text-anchor="middle" class="tick">10,000 BCE</text><text x="561.0" y="1031" text-anchor="middle" class="tick">5,000 BCE</text><text x="943.7" y="1031" text-anchor="middle" class="tick">1 CE</text><text x="1020.2" y="1031" text-anchor="middle" class="tick">1000</text><text x="1096.7" y="1031" text-anchor="middle" class="tick">2000</text><text x="125" y="1005.0" text-anchor="end" class="tick">$1b</text><text x="125" y="828.0" text-anchor="end" class="tick">$10b</text><text x="125" y="651.0" text-anchor="end" class="tick">$100b</text><text x="125" y="474.0" text-anchor="end" class="tick">$1t</text><text x="125" y="297.0" text-anchor="end" class="tick">$10t</text><text x="125" y="120.0" text-anchor="end" class="tick">$100t</text>
<text x="637.5" y="1077" text-anchor="middle" class="tick">Year</text>
<text x="33" y="557.5" transform="rotate(-90 33 557.5)" text-anchor="middle" class="tick">GWP (1990 international dollars, log scale)</text>
<text x="140" y="1152" class="note">Reconstructed from Roodman GWP.xlsx and the data-preparation logic in Model GWP.do.</text>
<text x="140" y="1173" class="note">The dotted reference line is a simple least-squares fit in the chart’s displayed coordinates.</text>
</svg>